<svg xmlns="http://www.w3.org/2000/svg" viewBox="0 0 152.92 179.12"><path d="M892.44,493.87h-87.8a9,9,0,0,1-9-8.2l-12.49-133a3,3,0,0,1,3-3.26H911a3,3,0,0,1,3,3.26l-12.49,133A9,9,0,0,1,892.44,493.87ZM789.38,355.33l12.18,129.78a3.08,3.08,0,0,0,3.08,2.8h87.8a3.07,3.07,0,0,0,3.07-2.8L907.7,355.33Z" transform="translate(-772.08 -314.75)"/><path d="M922,355.33h-147a3,3,0,0,1-3-3V334.67a3,3,0,0,1,3-3H922a3,3,0,0,1,3,3v17.68A3,3,0,0,1,922,355.33Zm-144-6H919V337.65H778Z" transform="translate(-772.08 -314.75)"/><path d="M825.28,462.05a3,3,0,0,1-3-2.8l-4.19-68c0-.06,0-.12,0-.18a7.86,7.86,0,0,0-7.85-7.85,3,3,0,0,1,0-6,13.82,13.82,0,0,1,13.81,13.71l4.19,67.95a3,3,0,0,1-2.79,3.16Z" transform="translate(-772.08 -314.75)"/><path d="M850.35,462.05a3,3,0,0,1-3-3V391c0-7.55-.94-7.85-3.26-7.85a3,3,0,0,1,0-6c9.22,0,9.22,8.64,9.22,13.81v68A3,3,0,0,1,850.35,462.05Z" transform="translate(-772.08 -314.75)"/><path d="M872.91,462.05h-.19a3,3,0,0,1-2.79-3.16l4.19-67.95a13.82,13.82,0,0,1,13.81-13.71,3,3,0,1,1,0,6,7.86,7.86,0,0,0-7.85,7.85c0,.06,0,.12,0,.18l-4.19,68A3,3,0,0,1,872.91,462.05Z" transform="translate(-772.08 -314.75)"/><path d="M862.86,337.65a3,3,0,0,1-3-3v-8.74a5.22,5.22,0,0,0-5.22-5.22H842.42a5.22,5.22,0,0,0-5.22,5.22v8.74a3,3,0,0,1-6,0v-8.74a11.19,11.19,0,0,1,11.18-11.18h12.24a11.19,11.19,0,0,1,11.18,11.18v8.74A3,3,0,0,1,862.86,337.65Z" transform="translate(-772.08 -314.75)"/></svg>