<svg xmlns="http://www.w3.org/2000/svg" viewBox="0 0 51.5 51.5">
<path d="M960.38,565.39a25.75,25.75,0,1,1,25.75-25.75A25.78,25.78,0,0,1,960.38,565.39Zm0-48.92a23.18,23.18,0,1,0,23.17,23.17A23.2,23.2,0,0,0,960.38,516.47Z" transform="translate(-934.63 -513.89)"/>
<path d="M965.56,540.24a9,9,0,1,0-10.36,0,15.05,15.05,0,0,0-9.84,14.1h2.57a12.45,12.45,0,0,1,24.9,0h2.57A15.05,15.05,0,0,0,965.56,540.24Zm-11.62-7.36a6.44,6.44,0,1,1,6.44,6.44A6.44,6.44,0,0,1,953.94,532.88Z" transform="translate(-934.63 -513.89)"/>
</svg>